<svg id="svg" version="1.1" xmlns="http://www.w3.org/2000/svg" xmlns:xlink="http://www.w3.org/1999/xlink" width="400" height="400" viewBox="0, 0, 400,400"><g id="svgg"><path id="path0" d="M242.600 18.746 C 237.353 20.123,230.067 28.903,226.291 38.400 C 225.394 40.654,225.256 41.043,225.006 42.000 C 224.863 42.550,224.563 43.630,224.340 44.400 C 222.721 49.978,222.125 65.990,223.393 69.868 C 223.735 70.914,145.841 149.200,144.457 149.200 C 144.040 149.200,141.561 148.764,138.949 148.232 C 122.954 144.971,104.232 144.385,93.400 146.807 C 84.095 148.888,78.537 150.791,73.600 153.589 C 72.610 154.149,71.305 154.862,70.700 155.172 C 70.095 155.482,69.600 155.885,69.600 156.068 C 69.600 156.250,69.375 156.401,69.100 156.402 C 67.546 156.409,59.189 164.178,57.937 166.780 C 56.698 169.352,56.709 174.612,57.959 177.242 C 58.624 178.643,67.456 187.713,94.817 215.095 C 114.608 234.901,130.800 251.300,130.800 251.538 C 130.800 251.775,112.648 270.126,90.463 292.317 C 52.499 330.291,47.275 335.764,44.487 340.484 C 44.124 341.098,43.686 341.600,43.514 341.600 C 43.341 341.600,43.200 341.793,43.200 342.028 C 43.200 342.263,42.686 343.208,42.058 344.128 C 40.096 346.999,37.829 350.889,36.457 353.738 C 30.871 365.341,32.230 368.819,41.200 365.875 C 43.482 365.126,51.685 360.839,54.062 359.153 C 54.646 358.739,55.255 358.400,55.416 358.400 C 55.882 358.400,61.348 354.476,65.547 351.128 C 67.831 349.307,85.449 331.995,108.797 308.628 C 130.466 286.943,148.355 269.200,148.552 269.200 C 148.748 269.200,165.091 285.375,184.868 305.144 C 224.730 344.989,222.411 342.953,227.965 342.982 C 232.949 343.008,234.933 341.845,240.213 335.800 C 253.495 320.594,258.043 292.789,252.156 262.789 C 251.574 259.825,251.022 256.860,250.928 256.200 C 250.767 255.073,253.149 252.609,290.127 215.652 L 329.497 176.304 330.941 176.781 C 332.480 177.288,348.840 177.469,349.621 176.987 C 349.854 176.843,351.070 176.553,352.323 176.343 C 353.575 176.133,355.187 175.860,355.904 175.736 C 356.621 175.613,357.306 175.351,357.427 175.156 C 357.548 174.960,358.076 174.800,358.600 174.800 C 359.124 174.800,359.664 174.620,359.800 174.400 C 359.936 174.180,360.368 174.000,360.759 174.000 C 364.613 174.000,378.343 163.998,380.460 159.649 C 381.798 156.898,381.778 151.702,380.417 148.972 C 379.105 146.339,253.965 21.092,251.244 19.687 C 249.326 18.697,244.704 18.194,242.600 18.746 " stroke="none" fill="#fc8264" fill-rule="evenodd"></path><path id="path1" d="M0.000 200.000 L 0.000 400.000 200.000 400.000 L 400.000 400.000 400.000 200.000 L 400.000 0.000 200.000 0.000 L 0.000 0.000 0.000 200.000 M249.343 18.198 C 250.411 18.522,251.851 19.142,252.543 19.575 C 253.717 20.311,380.800 147.175,380.800 147.611 C 380.800 147.721,381.160 148.796,381.600 150.000 C 382.486 152.424,382.651 156.138,381.950 157.881 C 381.031 160.167,380.582 161.020,379.900 161.775 C 379.515 162.202,379.200 162.681,379.200 162.841 C 379.200 163.262,372.999 168.375,370.626 169.910 C 367.654 171.833,360.526 175.200,359.428 175.200 C 359.109 175.200,358.736 175.380,358.600 175.600 C 358.464 175.820,357.859 176.000,357.256 176.000 C 356.653 176.000,355.989 176.162,355.780 176.359 C 355.571 176.556,354.680 176.820,353.800 176.945 C 352.920 177.070,350.760 177.393,349.000 177.662 C 345.498 178.198,337.237 178.278,332.200 177.826 L 329.000 177.539 290.229 216.341 L 251.459 255.143 252.585 260.871 C 254.563 270.933,255.355 278.785,255.364 288.400 C 255.377 303.196,253.170 314.275,248.152 324.600 C 246.788 327.407,245.575 329.626,245.199 330.000 C 245.089 330.110,244.745 330.692,244.435 331.293 C 244.126 331.895,243.586 332.705,243.236 333.094 C 242.886 333.482,242.064 334.521,241.410 335.400 C 238.337 339.529,233.914 343.200,232.011 343.200 C 231.591 343.200,231.136 343.380,231.000 343.600 C 230.678 344.121,225.322 344.121,225.000 343.600 C 224.864 343.380,224.401 343.200,223.971 343.200 C 223.180 343.200,222.130 342.695,220.647 341.600 C 220.200 341.270,204.503 325.700,185.764 307.000 C 167.025 288.300,150.950 272.286,150.042 271.414 L 148.391 269.829 107.895 310.290 C 85.623 332.544,66.500 351.449,65.400 352.303 C 62.507 354.546,54.899 359.600,54.413 359.600 C 54.186 359.600,54.000 359.780,54.000 360.000 C 54.000 360.220,53.807 360.400,53.572 360.400 C 53.337 360.400,52.392 360.906,51.472 361.524 C 44.422 366.265,35.939 368.777,33.544 366.834 C 31.118 364.864,33.893 354.987,38.853 347.938 C 39.264 347.354,39.600 346.679,39.600 346.438 C 39.600 346.197,39.780 346.000,40.000 346.000 C 40.220 346.000,40.400 345.812,40.400 345.582 C 40.400 345.098,43.539 340.339,46.721 336.000 C 48.086 334.138,64.334 317.561,89.537 292.317 L 130.154 251.633 129.377 250.758 C 128.950 250.277,113.020 234.294,93.978 215.242 C 74.936 196.189,58.808 179.790,58.137 178.800 C 54.713 173.744,55.527 167.260,60.162 162.681 C 77.336 145.711,106.553 140.300,140.600 147.785 C 142.140 148.123,143.760 148.400,144.201 148.400 C 144.730 148.400,158.158 135.243,183.761 109.639 L 222.520 70.879 222.189 67.539 C 221.713 62.735,221.774 54.686,222.314 51.200 C 222.569 49.550,222.884 47.480,223.014 46.600 C 223.143 45.720,223.394 44.640,223.569 44.200 C 223.745 43.760,224.106 42.680,224.371 41.800 C 225.051 39.543,225.800 37.689,227.360 34.400 C 228.374 32.263,229.476 30.267,230.112 29.417 C 230.284 29.188,231.116 28.053,231.961 26.896 C 237.754 18.967,243.085 16.300,249.343 18.198 " stroke="none" fill="#fcfbfb" fill-rule="evenodd"></path><path id="path2" d="M243.117 18.328 C 242.742 18.478,243.957 18.603,245.819 18.606 C 247.681 18.609,248.888 18.487,248.502 18.334 C 247.601 17.978,244.007 17.974,243.117 18.328 M239.178 19.949 C 235.397 22.393,228.877 30.885,227.086 35.700 C 226.560 37.111,227.139 36.340,228.285 34.100 C 231.631 27.566,236.685 21.563,240.600 19.473 C 241.260 19.120,241.610 18.825,241.378 18.816 C 241.146 18.807,240.156 19.317,239.178 19.949 M252.400 20.275 C 253.708 21.189,378.825 146.294,379.737 147.600 C 380.406 148.558,380.406 148.547,379.749 147.329 C 378.881 145.724,253.754 20.645,252.400 20.031 L 251.400 19.577 252.400 20.275 M224.846 41.267 C 224.821 41.634,224.696 42.264,224.570 42.667 C 224.352 43.362,224.363 43.363,224.797 42.687 C 225.048 42.296,225.173 41.666,225.073 41.287 C 224.911 40.668,224.888 40.666,224.846 41.267 M224.046 44.067 C 224.021 44.434,223.896 45.064,223.770 45.467 C 223.552 46.162,223.563 46.163,223.997 45.487 C 224.248 45.096,224.373 44.466,224.273 44.087 C 224.111 43.468,224.088 43.466,224.046 44.067 M223.249 47.800 C 223.216 48.240,223.096 49.050,222.983 49.600 L 222.777 50.600 223.206 49.619 C 223.442 49.079,223.561 48.269,223.472 47.819 C 223.313 47.021,223.307 47.021,223.249 47.800 M222.225 56.900 C 222.086 59.155,222.129 62.170,222.320 63.600 C 222.613 65.790,222.675 65.143,222.709 59.500 C 222.755 51.851,222.590 50.965,222.225 56.900 M222.901 69.484 C 222.968 70.472,222.672 71.094,221.616 72.184 C 220.861 72.963,220.389 73.600,220.568 73.600 C 221.042 73.600,223.605 70.718,223.572 70.222 C 223.556 69.990,223.380 69.440,223.179 69.000 C 222.878 68.341,222.829 68.426,222.901 69.484 M214.043 79.837 C 213.547 80.407,213.214 80.948,213.304 81.037 C 213.394 81.127,213.949 80.660,214.537 80.000 C 215.125 79.340,215.457 78.800,215.275 78.800 C 215.093 78.800,214.538 79.267,214.043 79.837 M204.996 88.804 C 204.366 89.462,203.982 90.000,204.143 90.000 C 204.556 90.000,206.522 87.988,206.313 87.780 C 206.219 87.686,205.626 88.146,204.996 88.804 M196.860 97.051 C 196.343 97.602,195.996 98.129,196.089 98.222 C 196.182 98.315,196.774 97.854,197.404 97.196 C 198.034 96.538,198.381 96.011,198.175 96.024 C 197.969 96.038,197.377 96.500,196.860 97.051 M188.596 105.204 C 187.966 105.862,187.582 106.400,187.743 106.400 C 188.156 106.400,190.122 104.388,189.913 104.180 C 189.819 104.086,189.226 104.546,188.596 105.204 M179.621 114.212 C 179.083 114.742,178.723 115.249,178.821 115.338 C 178.920 115.427,179.540 114.982,180.200 114.350 C 180.860 113.718,181.220 113.212,181.000 113.225 C 180.780 113.238,180.160 113.682,179.621 114.212 M171.793 122.007 C 170.937 122.883,170.370 123.600,170.532 123.600 C 170.940 123.600,173.719 120.786,173.514 120.581 C 173.423 120.489,172.648 121.131,171.793 122.007 M164.043 129.837 C 163.547 130.407,163.214 130.948,163.304 131.037 C 163.394 131.127,163.949 130.660,164.537 130.000 C 165.125 129.340,165.457 128.800,165.275 128.800 C 165.093 128.800,164.538 129.267,164.043 129.837 M154.996 138.804 C 154.366 139.462,153.982 140.000,154.143 140.000 C 154.556 140.000,156.522 137.988,156.313 137.780 C 156.219 137.686,155.626 138.146,154.996 138.804 M103.400 145.173 C 101.640 145.298,105.330 145.401,111.600 145.401 C 118.912 145.402,121.494 145.312,118.800 145.150 C 113.817 144.851,107.826 144.860,103.400 145.173 M124.100 145.876 C 124.485 145.976,125.115 145.976,125.500 145.876 C 125.885 145.775,125.570 145.693,124.800 145.693 C 124.030 145.693,123.715 145.775,124.100 145.876 M95.105 146.283 C 95.602 146.379,96.322 146.375,96.705 146.275 C 97.087 146.175,96.680 146.096,95.800 146.101 C 94.920 146.105,94.607 146.187,95.105 146.283 M127.305 146.287 C 127.914 146.379,128.814 146.377,129.305 146.282 C 129.797 146.187,129.300 146.111,128.200 146.114 C 127.100 146.117,126.697 146.195,127.305 146.287 M146.886 147.054 C 146.383 147.574,146.130 148.000,146.324 148.000 C 146.748 148.000,148.197 146.455,147.964 146.251 C 147.874 146.172,147.389 146.533,146.886 147.054 M91.400 146.828 C 90.520 147.016,89.260 147.355,88.600 147.583 L 87.400 147.997 88.600 147.802 C 90.966 147.418,93.743 146.791,93.936 146.597 C 94.198 146.336,93.352 146.413,91.400 146.828 M132.900 147.076 C 133.285 147.176,133.915 147.176,134.300 147.076 C 134.685 146.975,134.370 146.893,133.600 146.893 C 132.830 146.893,132.515 146.975,132.900 147.076 M136.833 147.744 C 136.925 147.824,137.810 147.996,138.800 148.127 C 140.002 148.286,140.334 148.247,139.800 148.010 C 139.036 147.672,136.486 147.443,136.833 147.744 M83.676 148.870 C 82.287 149.318,81.222 149.756,81.309 149.843 C 81.396 149.929,82.802 149.565,84.434 149.033 C 86.065 148.500,87.130 148.063,86.800 148.060 C 86.470 148.057,85.064 148.422,83.676 148.870 M140.833 148.547 C 140.925 148.628,141.720 148.804,142.600 148.938 C 143.715 149.107,143.958 149.071,143.400 148.819 C 142.632 148.471,140.490 148.244,140.833 148.547 M78.900 150.634 C 78.185 150.946,77.600 151.294,77.600 151.407 C 77.600 151.615,80.406 150.527,80.746 150.187 C 81.086 149.847,80.220 150.057,78.900 150.634 M381.400 154.400 C 381.400 156.364,381.522 157.662,381.672 157.285 C 381.821 156.908,381.944 155.610,381.944 154.400 C 381.944 153.190,381.821 151.892,381.672 151.515 C 381.522 151.138,381.400 152.436,381.400 154.400 M73.900 153.029 C 72.405 153.840,72.496 154.178,74.000 153.400 C 74.660 153.059,75.200 152.694,75.200 152.590 C 75.200 152.332,75.157 152.347,73.900 153.029 M65.172 158.668 C 62.626 160.776,58.804 164.487,58.374 165.267 C 58.172 165.634,59.310 164.635,60.903 163.047 C 62.497 161.459,64.610 159.502,65.600 158.698 C 66.590 157.894,67.297 157.228,67.172 157.218 C 67.047 157.208,66.147 157.860,65.172 158.668 M377.385 163.700 L 375.400 165.800 377.500 163.815 C 379.451 161.971,379.783 161.600,379.485 161.600 C 379.422 161.600,378.477 162.545,377.385 163.700 M372.000 168.046 C 370.790 168.932,368.944 170.123,367.898 170.693 C 366.852 171.263,366.067 171.801,366.154 171.888 C 366.382 172.115,371.546 168.963,373.200 167.587 C 375.201 165.921,374.575 166.161,372.000 168.046 M56.650 169.650 C 56.338 171.209,56.390 173.487,56.767 174.800 C 56.933 175.377,57.048 174.235,57.040 172.100 C 57.024 167.986,57.006 167.871,56.650 169.650 M361.319 173.762 C 359.759 174.330,359.004 175.018,360.400 174.600 C 361.577 174.247,363.580 173.218,363.000 173.264 C 362.780 173.281,362.024 173.505,361.319 173.762 M354.400 176.018 C 353.962 176.315,354.124 176.352,355.000 176.156 C 356.471 175.827,356.790 175.598,355.767 175.606 C 355.345 175.609,354.730 175.795,354.400 176.018 M290.099 215.701 C 248.996 256.805,250.195 255.507,251.210 257.800 C 251.448 258.337,251.486 258.026,251.325 256.859 L 251.084 255.117 290.041 216.159 C 326.570 179.628,329.086 177.198,330.399 177.172 C 331.699 177.146,331.199 176.526,329.799 176.428 C 329.579 176.413,311.714 194.085,290.099 215.701 M350.200 176.810 C 349.666 177.047,349.998 177.086,351.200 176.927 C 352.190 176.796,353.075 176.624,353.167 176.544 C 353.514 176.243,350.964 176.472,350.200 176.810 M336.859 177.700 C 338.893 177.910,341.860 177.910,344.059 177.700 C 347.569 177.364,347.355 177.342,340.600 177.342 C 334.055 177.342,333.715 177.375,336.859 177.700 M58.314 178.604 C 58.541 179.047,59.148 179.766,59.663 180.202 C 60.567 180.966,60.565 180.952,59.606 179.797 C 58.013 177.879,57.879 177.755,58.314 178.604 M65.800 186.400 C 68.654 189.260,71.078 191.600,71.188 191.600 C 71.298 191.600,69.054 189.260,66.200 186.400 C 63.346 183.540,60.922 181.200,60.812 181.200 C 60.702 181.200,62.946 183.540,65.800 186.400 M82.200 202.800 C 85.054 205.660,87.478 208.000,87.588 208.000 C 87.698 208.000,85.454 205.660,82.600 202.800 C 79.746 199.940,77.322 197.600,77.212 197.600 C 77.102 197.600,79.346 199.940,82.200 202.800 M98.600 219.200 C 101.454 222.060,103.878 224.400,103.988 224.400 C 104.098 224.400,101.854 222.060,99.000 219.200 C 96.146 216.340,93.722 214.000,93.612 214.000 C 93.502 214.000,95.746 216.340,98.600 219.200 M115.800 236.400 C 118.654 239.260,121.078 241.600,121.188 241.600 C 121.298 241.600,119.054 239.260,116.200 236.400 C 113.346 233.540,110.922 231.200,110.812 231.200 C 110.702 231.200,112.946 233.540,115.800 236.400 M130.021 250.683 C 130.511 251.469,130.474 251.670,129.686 252.509 C 128.464 253.809,128.565 254.272,129.800 253.036 C 130.966 251.870,131.061 251.113,130.136 250.349 C 129.529 249.848,129.519 249.877,130.021 250.683 M124.193 258.007 C 123.337 258.883,122.770 259.600,122.932 259.600 C 123.340 259.600,126.119 256.786,125.914 256.581 C 125.823 256.489,125.048 257.131,124.193 258.007 M251.687 259.800 C 251.691 260.240,251.832 261.140,252.000 261.800 C 252.274 262.878,252.306 262.898,252.313 262.000 C 252.317 261.450,252.176 260.550,252.000 260.000 C 251.749 259.216,251.681 259.173,251.687 259.800 M121.200 261.000 C 120.683 261.550,120.390 262.000,120.548 262.000 C 120.707 262.000,121.286 261.550,121.836 261.000 C 122.386 260.450,122.680 260.000,122.488 260.000 C 122.296 260.000,121.717 260.450,121.200 261.000 M252.672 265.000 C 252.799 266.100,252.969 267.075,253.051 267.167 C 253.332 267.482,253.120 264.999,252.780 264.000 C 252.551 263.326,252.516 263.651,252.672 265.000 M116.031 266.200 C 114.839 267.408,113.939 268.448,114.031 268.513 C 114.124 268.577,115.222 267.588,116.471 266.315 C 117.720 265.042,118.620 264.001,118.471 264.002 C 118.322 264.004,117.224 264.993,116.031 266.200 M253.485 270.000 C 253.607 271.430,253.772 272.675,253.853 272.767 C 254.120 273.070,253.911 269.822,253.585 268.600 C 253.382 267.844,253.346 268.362,253.485 270.000 M108.997 308.426 C 87.439 330.000,68.360 348.842,66.600 350.296 C 63.296 353.027,61.619 354.550,62.800 353.749 C 66.108 351.504,74.908 342.949,108.799 309.031 C 130.469 287.344,148.374 269.600,148.588 269.600 C 148.803 269.600,150.153 270.725,151.589 272.100 L 154.200 274.600 151.612 271.900 C 150.188 270.415,148.837 269.200,148.609 269.200 C 148.381 269.200,130.556 286.852,108.997 308.426 M110.868 271.327 C 109.635 272.640,109.787 273.049,111.042 271.794 C 111.616 271.221,112.006 270.673,111.911 270.577 C 111.815 270.482,111.346 270.819,110.868 271.327 M107.793 274.407 C 106.937 275.283,106.370 276.000,106.532 276.000 C 106.940 276.000,109.719 273.186,109.514 272.981 C 109.423 272.889,108.648 273.531,107.793 274.407 M254.310 278.200 C 254.421 280.840,254.576 283.075,254.655 283.167 C 254.928 283.481,254.741 277.001,254.425 275.200 C 254.232 274.096,254.187 275.257,254.310 278.200 M102.400 279.800 C 101.883 280.350,101.590 280.800,101.748 280.800 C 101.907 280.800,102.486 280.350,103.036 279.800 C 103.586 279.250,103.880 278.800,103.688 278.800 C 103.496 278.800,102.917 279.250,102.400 279.800 M165.800 286.400 C 168.654 289.260,171.078 291.600,171.188 291.600 C 171.298 291.600,169.054 289.260,166.200 286.400 C 163.346 283.540,160.922 281.200,160.812 281.200 C 160.702 281.200,162.946 283.540,165.800 286.400 M98.401 283.798 C 97.886 284.348,97.539 284.848,97.632 284.911 C 97.724 284.974,98.284 284.524,98.874 283.912 C 99.465 283.301,99.812 282.800,99.644 282.800 C 99.477 282.800,98.917 283.249,98.401 283.798 M254.955 289.000 C 254.956 291.860,255.020 292.978,255.097 291.483 C 255.174 289.989,255.174 287.649,255.096 286.283 C 255.018 284.918,254.955 286.140,254.955 289.000 M90.991 291.209 C 89.912 292.304,89.163 293.200,89.326 293.200 C 89.730 293.200,93.318 289.584,93.114 289.381 C 93.025 289.292,92.069 290.114,90.991 291.209 M254.476 296.444 C 254.434 297.678,254.315 299.568,254.211 300.644 L 254.022 302.600 254.429 300.646 C 254.653 299.571,254.772 297.681,254.694 296.446 L 254.551 294.200 254.476 296.444 M83.601 298.598 C 83.086 299.148,82.739 299.648,82.832 299.711 C 82.924 299.774,83.484 299.324,84.074 298.712 C 84.665 298.101,85.012 297.600,84.844 297.600 C 84.677 297.600,84.117 298.049,83.601 298.598 M182.200 302.800 C 185.054 305.660,187.478 308.000,187.588 308.000 C 187.698 308.000,185.454 305.660,182.600 302.800 C 179.746 299.940,177.322 297.600,177.212 297.600 C 177.102 297.600,179.346 299.940,182.200 302.800 M79.668 302.527 C 78.435 303.840,78.587 304.249,79.842 302.994 C 80.416 302.421,80.806 301.873,80.711 301.777 C 80.615 301.682,80.146 302.019,79.668 302.527 M253.659 304.200 C 253.620 304.860,253.496 305.850,253.383 306.400 L 253.177 307.400 253.608 306.414 C 253.844 305.872,253.968 304.882,253.883 304.214 L 253.728 303.000 253.659 304.200 M74.193 308.007 C 73.337 308.883,72.770 309.600,72.932 309.600 C 73.340 309.600,76.119 306.786,75.914 306.581 C 75.823 306.489,75.048 307.131,74.193 308.007 M252.849 308.200 C 252.816 308.640,252.696 309.450,252.583 310.000 L 252.377 311.000 252.806 310.019 C 253.042 309.479,253.161 308.669,253.072 308.219 C 252.913 307.421,252.907 307.421,252.849 308.200 M71.200 311.000 C 70.683 311.550,70.390 312.000,70.548 312.000 C 70.707 312.000,71.286 311.550,71.836 311.000 C 72.386 310.450,72.680 310.000,72.488 310.000 C 72.296 310.000,71.717 310.450,71.200 311.000 M251.850 312.450 C 251.709 313.153,251.669 313.802,251.759 313.892 C 251.850 313.983,252.048 313.491,252.200 312.800 C 252.352 312.109,252.393 311.459,252.291 311.358 C 252.189 311.256,251.991 311.747,251.850 312.450 M66.031 316.200 C 64.839 317.408,63.939 318.448,64.031 318.513 C 64.124 318.577,65.222 317.588,66.471 316.315 C 67.720 315.042,68.620 314.001,68.471 314.002 C 68.322 314.004,67.224 314.993,66.031 316.200 M198.600 319.200 C 201.454 322.060,203.878 324.400,203.988 324.400 C 204.098 324.400,201.854 322.060,199.000 319.200 C 196.146 316.340,193.722 314.000,193.612 314.000 C 193.502 314.000,195.746 316.340,198.600 319.200 M60.868 321.327 C 59.635 322.640,59.787 323.049,61.042 321.794 C 61.616 321.221,62.006 320.673,61.911 320.577 C 61.815 320.482,61.346 320.819,60.868 321.327 M57.793 324.407 C 56.937 325.283,56.370 326.000,56.532 326.000 C 56.940 326.000,59.719 323.186,59.514 322.981 C 59.423 322.889,58.648 323.531,57.793 324.407 M52.400 329.800 C 51.883 330.350,51.590 330.800,51.748 330.800 C 51.907 330.800,52.486 330.350,53.036 329.800 C 53.586 329.250,53.880 328.800,53.688 328.800 C 53.496 328.800,52.917 329.250,52.400 329.800 M49.951 332.529 C 47.209 335.849,43.600 340.928,43.600 341.465 C 43.600 341.641,44.075 341.069,44.657 340.193 C 46.504 337.408,48.908 334.248,50.358 332.700 C 51.130 331.875,51.591 331.213,51.381 331.229 C 51.172 331.245,50.528 331.830,49.951 332.529 M215.600 336.133 C 218.350 338.949,220.960 341.445,221.400 341.681 C 221.840 341.916,222.110 342.039,222.000 341.954 C 221.890 341.869,219.280 339.372,216.200 336.406 L 210.600 331.013 215.600 336.133 M239.568 336.480 C 237.505 338.841,236.271 340.062,234.564 341.431 C 233.844 342.009,233.855 342.017,234.746 341.583 C 235.746 341.096,238.850 338.010,240.864 335.500 C 242.754 333.144,241.959 333.745,239.568 336.480 M42.316 342.888 C 41.451 344.222,40.748 345.600,40.933 345.600 C 41.225 345.600,43.264 342.330,43.084 342.151 C 42.987 342.054,42.642 342.386,42.316 342.888 M225.238 343.251 C 225.767 343.399,227.100 343.520,228.200 343.520 C 229.300 343.520,230.633 343.399,231.162 343.251 C 231.691 343.103,230.358 342.982,228.200 342.982 C 226.042 342.982,224.709 343.103,225.238 343.251 M39.014 348.235 C 38.641 348.804,38.427 349.361,38.539 349.472 C 38.650 349.583,39.029 349.118,39.381 348.437 C 40.159 346.933,39.944 346.815,39.014 348.235 M60.079 355.235 C 59.155 355.914,58.400 356.555,58.400 356.659 C 58.400 356.764,59.210 356.268,60.200 355.557 C 61.819 354.395,62.244 354.000,61.879 354.000 C 61.812 354.000,61.002 354.556,60.079 355.235 M53.681 359.372 C 51.925 360.614,51.497 361.145,53.000 360.218 C 55.078 358.935,55.791 358.399,55.389 358.420 C 55.175 358.430,54.407 358.859,53.681 359.372 M33.052 361.300 C 32.225 364.385,33.556 367.575,35.464 367.083 C 36.101 366.918,36.088 366.887,35.362 366.846 C 33.726 366.756,33.066 365.458,33.306 362.806 C 33.535 360.277,33.455 359.798,33.052 361.300 M50.000 361.633 L 49.000 362.448 50.300 361.814 C 51.015 361.465,51.600 361.094,51.600 360.990 C 51.600 360.592,50.963 360.848,50.000 361.633 M37.400 366.800 L 36.200 367.105 37.400 367.147 C 38.060 367.169,38.870 367.013,39.200 366.800 C 39.943 366.320,39.287 366.320,37.400 366.800 " stroke="none" fill="#fcbcac" fill-rule="evenodd"></path><path id="path3" d="M222.093 55.600 C 222.093 56.370,222.175 56.685,222.276 56.300 C 222.376 55.915,222.376 55.285,222.276 54.900 C 222.175 54.515,222.093 54.830,222.093 55.600 M116.305 145.083 C 116.802 145.179,117.522 145.175,117.905 145.075 C 118.287 144.975,117.880 144.896,117.000 144.901 C 116.120 144.905,115.807 144.987,116.305 145.083 M60.581 162.500 L 59.000 164.200 60.700 162.619 C 62.281 161.148,62.584 160.800,62.281 160.800 C 62.216 160.800,61.451 161.565,60.581 162.500 M377.775 163.700 L 376.600 165.000 377.900 163.825 C 378.615 163.179,379.200 162.594,379.200 162.525 C 379.200 162.216,378.870 162.488,377.775 163.700 M343.700 177.876 C 344.085 177.976,344.715 177.976,345.100 177.876 C 345.485 177.775,345.170 177.693,344.400 177.693 C 343.630 177.693,343.315 177.775,343.700 177.876 M91.800 212.800 C 109.839 230.840,124.688 245.600,124.798 245.600 C 124.908 245.600,110.239 230.840,92.200 212.800 C 74.161 194.760,59.312 180.000,59.202 180.000 C 59.092 180.000,73.761 194.760,91.800 212.800 M127.600 248.600 C 129.017 250.030,130.267 251.200,130.377 251.200 C 130.487 251.200,129.417 250.030,128.000 248.600 C 126.583 247.170,125.333 246.000,125.223 246.000 C 125.113 246.000,126.183 247.170,127.600 248.600 M184.200 305.200 C 203.779 324.780,219.888 340.800,219.998 340.800 C 220.108 340.800,204.179 324.780,184.600 305.200 C 165.021 285.620,148.912 269.600,148.802 269.600 C 148.692 269.600,164.621 285.620,184.200 305.200 M254.909 282.400 C 254.909 283.390,254.987 283.795,255.082 283.300 C 255.178 282.805,255.178 281.995,255.082 281.500 C 254.987 281.005,254.909 281.410,254.909 282.400 M238.575 338.100 L 237.400 339.400 238.700 338.225 C 239.415 337.579,240.000 336.994,240.000 336.925 C 240.000 336.616,239.670 336.888,238.575 338.100 " stroke="none" fill="#fccabe" fill-rule="evenodd"></path><path id="path4" d="M244.707 17.890 C 245.426 17.979,246.506 17.977,247.107 17.886 C 247.708 17.795,247.120 17.722,245.800 17.724 C 244.480 17.726,243.988 17.801,244.707 17.890 M251.421 19.391 C 254.316 20.840,379.596 146.174,380.774 148.800 C 381.219 149.790,381.586 150.320,381.591 149.978 C 381.615 148.316,374.957 141.477,316.143 82.739 C 258.595 25.266,251.530 18.400,249.941 18.400 C 249.667 18.400,250.333 18.846,251.421 19.391 M234.970 23.300 C 233.274 25.105,231.399 27.411,232.450 26.400 C 233.659 25.236,236.907 21.600,236.738 21.600 C 236.644 21.600,235.848 22.365,234.970 23.300 M223.467 44.267 C 223.320 44.413,223.211 44.908,223.225 45.367 C 223.249 46.133,223.282 46.123,223.634 45.242 C 224.026 44.263,223.944 43.789,223.467 44.267 M222.649 48.215 C 222.512 48.573,222.423 49.436,222.450 50.133 C 222.492 51.187,222.550 51.098,222.799 49.600 C 223.117 47.686,223.059 47.148,222.649 48.215 M221.850 54.050 C 221.538 55.611,221.607 63.391,221.947 64.980 C 222.086 65.630,222.200 63.155,222.200 59.481 C 222.200 52.153,222.207 52.264,221.850 54.050 M222.467 69.401 C 222.396 71.086,146.272 148.040,144.200 148.521 C 143.401 148.707,143.401 148.707,144.201 148.754 C 144.759 148.786,156.769 137.032,183.929 109.871 L 222.857 70.942 222.696 69.371 L 222.534 67.800 222.467 69.401 M103.278 144.740 C 102.771 144.883,106.518 145.000,111.603 145.000 C 116.689 145.000,120.434 144.883,119.925 144.740 C 119.416 144.597,115.670 144.480,111.600 144.480 C 107.530 144.480,103.785 144.597,103.278 144.740 M96.400 145.606 C 95.978 145.882,96.215 145.923,97.200 145.742 C 98.925 145.425,99.251 145.198,97.967 145.206 C 97.435 145.209,96.730 145.389,96.400 145.606 M124.833 145.347 C 124.925 145.428,125.720 145.614,126.600 145.762 C 127.746 145.954,128.030 145.914,127.600 145.621 C 127.060 145.253,124.432 144.993,124.833 145.347 M91.800 146.400 C 91.296 146.617,91.222 146.744,91.600 146.744 C 91.930 146.744,92.560 146.589,93.000 146.400 C 93.504 146.183,93.578 146.056,93.200 146.056 C 92.870 146.056,92.240 146.211,91.800 146.400 M132.000 146.400 C 133.368 146.838,134.419 146.838,133.400 146.400 C 132.960 146.211,132.240 146.062,131.800 146.068 C 131.157 146.077,131.196 146.143,132.000 146.400 M136.600 147.200 C 137.040 147.389,137.670 147.544,138.000 147.544 C 138.378 147.544,138.304 147.417,137.800 147.200 C 137.360 147.011,136.730 146.856,136.400 146.856 C 136.022 146.856,136.096 146.983,136.600 147.200 M382.078 154.067 C 382.035 155.534,381.896 157.064,381.770 157.467 C 381.556 158.149,381.571 158.152,381.988 157.503 C 382.248 157.099,382.378 155.666,382.297 154.103 L 382.157 151.400 382.078 154.067 M58.069 164.839 C 57.310 166.054,57.766 166.216,58.555 165.012 C 58.920 164.456,59.078 164.000,58.905 164.000 C 58.733 164.000,58.357 164.378,58.069 164.839 M371.212 169.059 C 368.351 171.031,367.737 171.549,369.104 170.838 C 370.508 170.108,373.553 168.000,373.813 167.579 C 374.143 167.045,374.092 167.074,371.212 169.059 M56.128 172.000 C 56.128 173.430,56.201 174.015,56.289 173.300 C 56.378 172.585,56.378 171.415,56.289 170.700 C 56.201 169.985,56.128 170.570,56.128 172.000 M354.600 176.400 C 353.829 176.731,353.831 176.745,354.676 176.772 C 355.158 176.787,355.664 176.620,355.800 176.400 C 356.092 175.927,355.701 175.927,354.600 176.400 M350.600 177.200 C 349.493 177.482,349.477 177.509,350.400 177.547 C 350.950 177.569,351.670 177.413,352.000 177.200 C 352.681 176.760,352.329 176.760,350.600 177.200 M329.700 177.476 C 330.085 177.576,330.715 177.576,331.100 177.476 C 331.485 177.375,331.170 177.293,330.400 177.293 C 329.630 177.293,329.315 177.375,329.700 177.476 M289.859 216.341 C 260.048 246.153,251.164 255.258,251.313 255.841 C 251.495 256.554,251.510 256.552,251.554 255.801 C 251.582 255.308,266.416 240.185,290.299 216.301 C 311.584 195.015,328.908 177.600,328.798 177.600 C 328.688 177.600,311.166 195.034,289.859 216.341 M334.875 178.060 C 335.384 178.203,337.960 178.320,340.600 178.320 C 343.240 178.320,345.814 178.203,346.320 178.060 C 346.827 177.917,344.250 177.800,340.595 177.800 C 336.940 177.800,334.366 177.917,334.875 178.060 M64.200 185.600 C 65.283 186.700,66.260 187.600,66.370 187.600 C 66.480 187.600,65.683 186.700,64.600 185.600 C 63.517 184.500,62.540 183.600,62.430 183.600 C 62.320 183.600,63.117 184.500,64.200 185.600 M98.600 220.000 C 100.128 221.540,101.469 222.800,101.579 222.800 C 101.689 222.800,100.528 221.540,99.000 220.000 C 97.472 218.460,96.131 217.200,96.021 217.200 C 95.911 217.200,97.072 218.460,98.600 220.000 M115.400 236.800 C 117.150 238.560,118.671 240.000,118.781 240.000 C 118.891 240.000,117.550 238.560,115.800 236.800 C 114.050 235.040,112.529 233.600,112.419 233.600 C 112.309 233.600,113.650 235.040,115.400 236.800 M129.395 250.720 L 130.159 251.639 89.980 291.920 L 49.800 332.200 90.195 291.905 L 130.589 251.611 129.609 250.705 L 128.630 249.800 129.395 250.720 M252.468 261.800 C 252.462 262.240,252.611 262.960,252.800 263.400 C 253.238 264.419,253.238 263.368,252.800 262.000 C 252.543 261.196,252.477 261.157,252.468 261.800 M148.039 269.700 C 148.135 269.755,149.020 270.520,150.006 271.400 L 151.800 273.000 150.219 271.300 C 149.349 270.365,148.464 269.600,148.252 269.600 C 148.040 269.600,147.944 269.645,148.039 269.700 M146.370 271.500 L 145.400 272.600 146.600 271.600 C 147.260 271.050,147.875 270.555,147.967 270.500 C 148.058 270.445,147.955 270.400,147.736 270.400 C 147.518 270.400,146.903 270.895,146.370 271.500 M254.262 273.000 C 254.396 273.880,254.572 274.675,254.653 274.767 C 254.956 275.110,254.729 272.968,254.381 272.200 C 254.129 271.642,254.093 271.885,254.262 273.000 M143.200 274.600 C 142.228 275.590,141.523 276.400,141.633 276.400 C 141.743 276.400,142.628 275.590,143.600 274.600 C 144.572 273.610,145.277 272.800,145.167 272.800 C 145.057 272.800,144.172 273.610,143.200 274.600 M255.117 282.800 C 255.222 285.110,255.373 287.075,255.454 287.167 C 255.719 287.469,255.512 281.026,255.216 279.800 C 255.057 279.140,255.013 280.490,255.117 282.800 M133.794 284.095 C 131.157 286.787,129.872 288.182,130.939 287.195 C 134.215 284.162,139.080 279.200,138.777 279.200 C 138.673 279.200,136.430 281.403,133.794 284.095 M165.400 286.800 C 167.150 288.560,168.671 290.000,168.781 290.000 C 168.891 290.000,167.550 288.560,165.800 286.800 C 164.050 285.040,162.529 283.600,162.419 283.600 C 162.309 283.600,163.650 285.040,165.400 286.800 M255.277 291.800 C 255.230 293.560,255.106 295.720,255.002 296.600 L 254.812 298.200 255.221 296.600 C 255.445 295.720,255.569 293.560,255.496 291.800 L 255.363 288.600 255.277 291.800 M124.400 293.400 C 123.428 294.390,122.723 295.200,122.833 295.200 C 122.943 295.200,123.828 294.390,124.800 293.400 C 125.772 292.410,126.477 291.600,126.367 291.600 C 126.257 291.600,125.372 292.410,124.400 293.400 M116.989 300.867 C 115.455 302.443,114.740 303.298,115.400 302.767 C 116.653 301.757,120.236 298.000,119.946 298.000 C 119.854 298.000,118.523 299.290,116.989 300.867 M180.600 302.000 C 181.683 303.100,182.660 304.000,182.770 304.000 C 182.880 304.000,182.083 303.100,181.000 302.000 C 179.917 300.900,178.940 300.000,178.830 300.000 C 178.720 300.000,179.517 300.900,180.600 302.000 M254.250 302.850 C 254.109 303.553,254.069 304.202,254.159 304.292 C 254.250 304.383,254.448 303.891,254.600 303.200 C 254.752 302.509,254.793 301.859,254.691 301.758 C 254.589 301.656,254.391 302.147,254.250 302.850 M101.792 316.081 C 99.597 318.326,98.700 319.361,99.800 318.381 C 101.894 316.516,106.251 312.000,105.956 312.000 C 105.862 312.000,103.988 313.837,101.792 316.081 M198.600 320.000 C 200.128 321.540,201.469 322.800,201.579 322.800 C 201.689 322.800,200.528 321.540,199.000 320.000 C 197.472 318.460,196.131 317.200,196.021 317.200 C 195.911 317.200,197.072 318.460,198.600 320.000 M96.370 321.500 L 95.400 322.600 96.600 321.600 C 97.260 321.050,97.875 320.555,97.967 320.500 C 98.058 320.445,97.955 320.400,97.736 320.400 C 97.518 320.400,96.903 320.895,96.370 321.500 M249.057 321.884 C 248.923 322.278,248.636 323.005,248.419 323.500 C 247.779 324.964,248.303 324.525,249.034 322.986 C 249.403 322.208,249.614 321.481,249.503 321.370 C 249.392 321.259,249.192 321.490,249.057 321.884 M93.200 324.600 C 92.228 325.590,91.523 326.400,91.633 326.400 C 91.743 326.400,92.628 325.590,93.600 324.600 C 94.572 323.610,95.277 322.800,95.167 322.800 C 95.057 322.800,94.172 323.610,93.200 324.600 M246.253 327.700 L 245.533 329.000 246.358 328.000 C 247.089 327.113,247.414 326.400,247.086 326.400 C 247.024 326.400,246.649 326.985,246.253 327.700 M84.592 333.288 C 82.397 335.537,81.116 336.932,81.747 336.388 C 83.652 334.746,89.075 329.200,88.776 329.200 C 88.671 329.200,86.788 331.040,84.592 333.288 M243.853 331.700 L 243.133 333.000 243.958 332.000 C 244.689 331.113,245.014 330.400,244.686 330.400 C 244.624 330.400,244.249 330.985,243.853 331.700 M48.344 333.900 C 47.193 335.289,46.706 336.000,46.904 336.000 C 47.014 336.000,47.586 335.370,48.173 334.600 C 49.263 333.171,49.395 332.632,48.344 333.900 M215.400 336.800 C 217.150 338.560,218.671 340.000,218.781 340.000 C 218.891 340.000,217.550 338.560,215.800 336.800 C 214.050 335.040,212.529 333.600,212.419 333.600 C 212.309 333.600,213.650 335.040,215.400 336.800 M237.578 339.500 L 236.200 341.000 237.700 339.622 C 239.096 338.338,239.384 338.000,239.078 338.000 C 239.012 338.000,238.337 338.675,237.578 339.500 M74.400 343.400 C 73.428 344.390,72.723 345.200,72.833 345.200 C 72.943 345.200,73.828 344.390,74.800 343.400 C 75.772 342.410,76.477 341.600,76.367 341.600 C 76.257 341.600,75.372 342.410,74.400 343.400 M225.062 343.700 C 225.164 343.865,226.486 344.000,228.000 344.000 C 229.514 344.000,230.836 343.865,230.938 343.700 C 231.040 343.535,229.718 343.400,228.000 343.400 C 226.282 343.400,224.960 343.535,225.062 343.700 M71.201 346.598 C 70.686 347.148,70.339 347.664,70.432 347.746 C 70.524 347.828,71.019 347.378,71.530 346.747 C 72.676 345.335,72.474 345.244,71.201 346.598 M68.181 349.700 L 66.600 351.400 68.300 349.819 C 69.881 348.348,70.184 348.000,69.881 348.000 C 69.816 348.000,69.051 348.765,68.181 349.700 M32.509 363.600 C 32.509 364.590,32.587 364.995,32.682 364.500 C 32.778 364.005,32.778 363.195,32.682 362.700 C 32.587 362.205,32.509 362.610,32.509 363.600 M42.000 366.000 C 41.010 366.415,40.403 366.765,40.651 366.778 C 41.218 366.806,44.000 365.657,44.000 365.395 C 44.000 365.148,44.112 365.114,42.000 366.000 M35.507 367.490 C 36.226 367.579,37.306 367.577,37.907 367.486 C 38.508 367.395,37.920 367.322,36.600 367.324 C 35.280 367.326,34.788 367.401,35.507 367.490 " stroke="none" fill="#fcdcd4" fill-rule="evenodd"></path></g></svg>